<?xml version="1.0" encoding="utf-8"?>
<!-- Generator: Adobe Illustrator 18.0.0, SVG Export Plug-In . SVG Version: 6.00 Build 0)  -->
<!DOCTYPE svg PUBLIC "-//W3C//DTD SVG 1.1//EN" "http://www.w3.org/Graphics/SVG/1.1/DTD/svg11.dtd">
<svg version="1.1" id="Layer_1" xmlns="http://www.w3.org/2000/svg" xmlns:xlink="http://www.w3.org/1999/xlink" x="0px" y="0px"
	 viewBox="0 0 512 512" enable-background="new 0 0 512 512" xml:space="preserve">
<g>
	<circle fill="#84DBFF" cx="256" cy="256" r="253"/>
	<g>
		<path fill="#F9B54C" d="M389.2,136.4H120.5c-12.5,0-22.6,10.1-22.6,22.6v128.7c0,12.5,10.1,22.6,22.6,22.6h268.7
			c12.5,0,22.6-10.1,22.6-22.6V159.1C411.8,146.6,401.7,136.4,389.2,136.4z"/>
		<path fill="#FFFFFF" d="M125.7,270v-93.2c0-7,5.6-12.6,12.6-12.6h233.1c7,0,12.6,5.6,12.6,12.6V270c0,7-5.6,12.6-12.6,12.6H138.3
			C131.3,282.6,125.7,277,125.7,270z"/>
		<g>
			<path fill="#F1543F" d="M184.5,258.9h-31.4v-71.7H181c4.9,0,9,0.6,12.6,1.7c3.5,1.2,6.2,2.7,8,4.7c3.2,3.7,4.8,7.9,4.8,12.5
				c0,5.6-1.8,9.8-5.4,12.5c-1.2,1-2.1,1.6-2.6,1.8c-0.5,0.2-1.3,0.6-2.6,1.2c4.4,1,8,3,10.6,6c2.6,3,3.9,6.8,3.9,11.3
				c0,5-1.7,9.4-5.1,13.2C201.3,256.7,194.4,258.9,184.5,258.9z M169.1,216.2h7.6c4.4,0,7.7-0.5,9.9-1.4c2.2-1,3.2-3,3.2-6.2
				s-1-5.3-3-6.3c-2-1-5.3-1.5-10.1-1.5h-7.7V216.2z M169.1,245.4h11c4.6,0,8-0.6,10.3-1.7c2.3-1.1,3.4-3.4,3.4-6.7
				c0-3.3-1.2-5.5-3.6-6.6c-2.4-1.1-6.3-1.6-11.6-1.6h-9.4V245.4z"/>
			<path fill="#F1543F" d="M242.8,240.4c2.7,3.3,6.3,5,10.8,5c4.5,0,8.1-1.7,10.7-5c2.6-3.3,3.9-7.8,3.9-13.6v-39.6h16v40.1
				c0,10.4-2.9,18.4-8.6,24c-5.7,5.6-13.1,8.4-22.1,8.4c-9,0-16.3-2.8-22.1-8.4c-5.8-5.6-8.7-13.6-8.7-23.9v-40.1h16v39.6
				C238.8,232.5,240.1,237.1,242.8,240.4z"/>
			<path fill="#F1543F" d="M331.7,258.9h-16v-28.3l-24.8-43.4h17.3l15.5,26.7l15.5-26.7h17.3l-24.8,43.4V258.9z"/>
		</g>
		<polygon fill="#324A5E" points="413.6,316.5 276.8,277.8 315.5,414.5 339.2,367.6 386.8,415.1 414.1,387.7 366.6,340.2 		"/>
	</g>
</g>
</svg>
