<?xml version="1.0" encoding="utf-8"?>
<!-- Generator: Adobe Illustrator 18.0.0, SVG Export Plug-In . SVG Version: 6.00 Build 0)  -->
<!DOCTYPE svg PUBLIC "-//W3C//DTD SVG 1.1//EN" "http://www.w3.org/Graphics/SVG/1.1/DTD/svg11.dtd">
<svg version="1.1" id="Layer_1" xmlns="http://www.w3.org/2000/svg" xmlns:xlink="http://www.w3.org/1999/xlink" x="0px" y="0px"
	 viewBox="0 0 128 128" enable-background="new 0 0 128 128" xml:space="preserve">
<g>
	<circle fill="#324A5E" cx="64" cy="64" r="63.5"/>
	<g>
		<g>
			
				<rect x="51.7" y="69.4" transform="matrix(0.7071 -0.7071 0.7071 0.7071 -30.1899 73.0556)" fill="#4CDBC4" width="42.8" height="7.1"/>
			<path fill="#E6E9EE" d="M90.9,96.3l4.8,4.8l5.7-5.7l-4.8-4.8c4.6-7.2,3.8-16.9-2.5-23.3l-5.2-5.2L62.4,88.7l5.2,5.2
				C73.9,100.1,83.6,101,90.9,96.3z"/>
		</g>
		<g>
			<g>
				
					<rect x="32.7" y="50.4" transform="matrix(-0.7071 0.7071 -0.7071 -0.7071 130.5551 53.8202)" fill="#4CDBC4" width="42.8" height="7.1"/>
				<path fill="#E6E9EE" d="M36.4,30.5l-4.8-4.8l-5.7,5.7l4.8,4.8c-4.6,7.2-3.8,16.9,2.5,23.3l5.2,5.2l26.4-26.4L59.7,33
					C53.3,26.7,43.6,25.9,36.4,30.5z"/>
			</g>
			<g>
				<path fill="#E6E9EE" d="M45.8,67.2l7.8,7.8c1.4,1.4,3.7,1.4,5.1,0l0,0c1.4-1.4,1.4-3.7,0-5.1l-7.8-7.8L45.8,67.2z"/>
				<path fill="#E6E9EE" d="M62.4,50.7l7.8,7.8c1.4,1.4,3.7,1.4,5.1,0l0,0c1.4-1.4,1.4-3.7,0-5.1l-7.8-7.8L62.4,50.7z"/>
			</g>
		</g>
	</g>
</g>
</svg>
