<?xml version="1.0" encoding="utf-8"?>
<!-- Generator: Adobe Illustrator 18.0.0, SVG Export Plug-In . SVG Version: 6.00 Build 0)  -->
<!DOCTYPE svg PUBLIC "-//W3C//DTD SVG 1.1//EN" "http://www.w3.org/Graphics/SVG/1.1/DTD/svg11.dtd">
<svg version="1.1" id="Layer_1" xmlns="http://www.w3.org/2000/svg" xmlns:xlink="http://www.w3.org/1999/xlink" x="0px" y="0px"
	 viewBox="0 0 512 512" enable-background="new 0 0 512 512" xml:space="preserve">
<g>
	<g>
		<circle fill="none" cx="256" cy="256" r="254"/>
	</g>
	<g>
		<path fill="#FFFFFF" d="M265.3,89.5c-86.8,0-157.2,70.4-157.2,157.2c0,27.2,6.9,52.8,19.1,75.1l-19.1,82.1l82.1-19.1
			c22.3,12.2,47.9,19.1,75.1,19.1c86.8,0,157.2-70.4,157.2-157.2C422.5,159.9,352.1,89.5,265.3,89.5z"/>
	</g>
	<g>
		<path fill="#FF7058" d="M273.6,282.3h-29.3v-15.8c0-6.9,0.8-12.1,2.5-15.4c1.6-3.4,5.2-7.8,10.8-13.3l18.9-18.9
			c4-4.3,6-9.7,6-16.1c0-6.4-2.1-11.7-6.2-15.9c-4.2-4.2-9.5-6.4-16.1-6.4c-6.6,0-12,2-16.5,6.1c-4.4,4.1-7,9.5-7.7,16.2h-31.4
			c1.7-15.4,7.7-27.4,18-36.1c10.3-8.7,23.1-13.1,38.5-13.1s27.9,4.2,37.6,12.6c9.7,8.4,14.5,20.1,14.5,35.1c0,10.4-2.8,19-8.5,25.9
			c-3.3,4.1-5.8,7.1-7.5,8.8c-1.7,1.7-4,3.9-6.9,6.6c-2.9,2.7-5.3,5-7.3,7c-2,2-3.6,3.7-4.8,5.1c-3.1,3.8-4.7,9.2-4.7,16.1V282.3z
			 M259.5,339.9c-5.4,0-10.1-1.9-14.1-5.6c-4-3.7-6-8.2-6-13.5c0-5.3,1.9-9.8,5.8-13.6c3.9-3.8,8.6-5.7,14-5.7
			c5.4,0,10.1,1.9,14.1,5.6c4,3.7,5.9,8.2,5.9,13.5c0,5.3-1.9,9.8-5.8,13.6C269.6,338,264.9,339.9,259.5,339.9z"/>
	</g>
</g>
</svg>
