<?xml version="1.0" encoding="utf-8"?>
<!-- Generator: Adobe Illustrator 18.0.0, SVG Export Plug-In . SVG Version: 6.00 Build 0)  -->
<!DOCTYPE svg PUBLIC "-//W3C//DTD SVG 1.1//EN" "http://www.w3.org/Graphics/SVG/1.1/DTD/svg11.dtd">
<svg version="1.1" id="Layer_1" xmlns="http://www.w3.org/2000/svg" xmlns:xlink="http://www.w3.org/1999/xlink" x="0px" y="0px"
	 viewBox="0 0 130 130" enable-background="new 0 0 130 130" xml:space="preserve">
<g>
	<circle fill="#ffffff" cx="65" cy="65" r="64"/>
	<rect x="25" y="45.4" fill="#444444" width="80" height="54.2"/>
	<polygon fill="#FFFFFF" points="65,45.4 29,45.4 29,95.6 65,95.6 101,95.6 101,45.4 	"/>
	<rect x="25" y="30.4" fill="#444444" width="80" height="15"/>
	<rect x="54.9" y="50.3" fill="#F09419" width="8.9" height="40.4"/>
	<rect x="43.7" y="60.3" fill="#02708C" width="8.9" height="30.4"/>
	<rect x="32.4" y="70.3" fill="#FF6347" width="8.9" height="20.4"/>
	<path fill="#aaaaaa" d="M83.1,56c-7.5,0-13.5,6-13.5,13.5c0,3.7,1.5,7.1,4,9.5l9.5-9.5V56z"/>
	<path fill="#B22222" d="M85.1,56v13.5h13.5C98.6,62,92.5,56,85.1,56z"/>
	<rect x="29" y="35.8" fill="#FFFFFF" width="5.8" height="4.3"/>
	<rect x="40.8" y="35.8" fill="#FFFFFF" width="5.8" height="4.3"/>
	<rect x="52.5" y="35.8" fill="#FFFFFF" width="5.8" height="4.3"/>
	<path fill="#2196f3" d="M73.5,82c2.4,2.4,5.8,4,9.5,4c1.7,0,3.4-0.3,4.9-0.9l-4.9-12.6L73.5,82z"/>
	<path fill="#02708C" d="M98.6,71.5H85.1L90,84.1C95,82.1,98.6,77.2,98.6,71.5z"/>
</g>
</svg>
