<?xml version="1.0" encoding="utf-8"?>
<!-- Generator: Adobe Illustrator 18.0.0, SVG Export Plug-In . SVG Version: 6.00 Build 0)  -->
<!DOCTYPE svg PUBLIC "-//W3C//DTD SVG 1.1//EN" "http://www.w3.org/Graphics/SVG/1.1/DTD/svg11.dtd">
<svg version="1.1" id="Layer_1" xmlns="http://www.w3.org/2000/svg" xmlns:xlink="http://www.w3.org/1999/xlink" x="0px" y="0px"
	 viewBox="0 0 512 512" enable-background="new 0 0 512 512" xml:space="preserve">
<g>
	<circle fill="none" cx="256" cy="256" r="253"/>
	<g>
		<path fill="#FF7058" d="M394.5,254.4c3.8-6.5,6-13.9,6-21.9c0-16.1-9.1-30.8-23.9-39.1c7.9-8.1,12.8-18.8,12.8-30.6
			c0-21-15.2-39.1-37.1-44.3C348,97.2,327.7,81,303.4,81c-22.2,0-41,13.5-47.4,32c-6.4-18.5-25.2-32-47.4-32
			c-24.4,0-44.7,16.3-48.9,37.7c-21.9,5.3-37.1,23.4-37.1,44.3c0,11.7,4.9,22.4,12.8,30.6c-14.8,8.3-23.9,23-23.9,39.1
			c0,7.9,2.2,15.4,6,21.9c-3.9,6.6-6,14.1-6,21.7c0,11.9,5,22.7,13.1,30.9c-1.3,4.1-1.9,8.3-1.9,12.6c0,22.2,16.9,40.9,40.4,45
			c7.7,16.2,25.2,27.5,45.5,27.5c24.8,0,45,18.5,45,41.2h4.7c0-22.7,20.2-41.2,45-41.2c20.3,0,37.8-11.3,45.5-27.5
			c23.5-4.1,40.4-22.8,40.4-45c0-4.3-0.7-8.5-1.9-12.6c8.2-8.3,13.1-19.3,13.1-30.9C400.5,268.5,398.3,261.1,394.5,254.4z"/>
		<path fill="#F1543F" d="M397.1,254.4c3.6-6.6,5.7-14,5.7-21.8c0-16-8.5-30.7-22.5-39.6c7.1-8.2,11.4-18.7,11.4-30
			c0-21.6-15.3-40.2-37.4-46.2c-5-21.7-25.9-38.1-50.9-38.1c-21.1,0-39.2,11.7-47.4,28.4c-8.2-16.7-26.3-28.4-47.4-28.4
			c-25,0-45.8,16.4-50.9,38.1c-22.1,6-37.4,24.6-37.4,46.2c0,11.3,4.3,21.8,11.4,30c-14,8.9-22.5,23.6-22.5,39.6
			c0,7.9,2.1,15.3,5.7,21.8c-3.7,6.7-5.7,14.1-5.7,21.7c0,12.1,4.8,23.1,12.8,31.5c-1.1,3.9-1.7,7.9-1.7,12
			c0,23,17.2,42.4,41.2,47.1c8.3,16.4,26.3,27.8,47.1,27.8c23.5,0,42.7,17.4,42.7,38.9h9.3c0-21.4,19.2-38.9,42.7-38.9
			c20.8,0,38.7-11.4,47.1-27.8c24-4.7,41.2-24.1,41.2-47.1c0-4.1-0.6-8.1-1.6-12c8-8.6,12.8-19.7,12.8-31.5
			C402.8,268.5,400.8,261.1,397.1,254.4z M208.6,385.2c-23.5,0-42.7-17.4-42.7-38.9c0-21.4,19.2-38.9,42.7-38.9v-9.3
			c-28.7,0-52,21.6-52,48.2c0,3.4,0.4,6.7,1.1,9.8c-16.6-5.5-28-19.9-28-36.5c0-1.7,0.2-3.4,0.4-5c8.7,6.1,19.5,9.7,31.2,9.7V315
			c-23.6,0-42.7-17.4-42.7-38.9c0-4.4,0.9-8.8,2.5-12.9c9.6,10.7,24,17.6,40.2,17.6c28.7,0,52-21.6,52-48.2H204
			c0,21.4-19.2,38.9-42.7,38.9c-23.6,0-42.7-17.4-42.7-38.9c0-13.5,7.7-25.8,20.2-32.9c9.1,7.1,20.8,11.5,33.6,11.5v-9.3
			c-23.5,0-42.7-17.4-42.7-38.9c0-16.2,10.8-30.3,26.9-36.1c0,26.6,23.4,48.2,52,48.2v-9.3c-23.5,0-42.7-17.4-42.7-38.9
			S185.1,88,208.6,88s42.7,17.4,42.7,38.9v279.1C241.9,393.4,226.3,385.2,208.6,385.2z M354.3,356.2c0.7-3.2,1.1-6.5,1.1-9.8
			c0-26.6-23.3-48.2-52-48.2v9.3c23.6,0,42.7,17.4,42.7,38.9c0,21.4-19.2,38.9-42.7,38.9c-17.7,0-33.3,8.2-42.7,20.7V126.8
			c0-21.4,19.2-38.9,42.7-38.9c23.6,0,42.7,17.4,42.7,38.9s-19.2,38.9-42.7,38.9v9.3c28.7,0,52-21.6,52-48.2
			c16.1,5.8,26.9,19.9,26.9,36.1c0,21.4-19.2,38.9-42.7,38.9v9.3c12.8,0,24.6-4.3,33.6-11.5c12.5,7.1,20.2,19.4,20.2,32.9
			c0,21.4-19.2,38.9-42.7,38.9c-23.6,0-42.7-17.4-42.7-38.9h-9.3c0,26.6,23.3,48.2,52,48.2c16.2,0,30.6-6.9,40.2-17.6
			c1.6,4.1,2.5,8.5,2.5,12.9c0,16.1-11.2,30.8-27.8,36.4l3,8.8c4.8-1.6,9.3-3.9,13.2-6.7c0.2,1.6,0.4,3.3,0.4,5
			C382.3,336.3,370.9,350.7,354.3,356.2z"/>
	</g>
</g>
</svg>
