<?xml version="1.0" encoding="utf-8"?>
<!-- Generator: Adobe Illustrator 18.0.0, SVG Export Plug-In . SVG Version: 6.00 Build 0)  -->
<!DOCTYPE svg PUBLIC "-//W3C//DTD SVG 1.1//EN" "http://www.w3.org/Graphics/SVG/1.1/DTD/svg11.dtd">
<svg version="1.1" id="Layer_1" xmlns="http://www.w3.org/2000/svg" xmlns:xlink="http://www.w3.org/1999/xlink" x="0px" y="0px"
	 viewBox="0 0 512 512" enable-background="new 0 0 512 512" xml:space="preserve">
<g>
	<g>
		<circle fill="none" cx="256" cy="256" r="252.5"/>
	</g>
	<g>
		<g>
			<polygon fill="#2B3B4E" points="302.4,370.6 209.6,370.6 195.5,422.1 316.5,422.1 			"/>
		</g>
		<g>
			<path fill="#324A5E" d="M338.6,412.9H173.4c-1.4,0-2.5,1.1-2.5,2.5v17.5c0,1.4,1.1,2.5,2.5,2.5h165.2c1.4,0,2.5-1.1,2.5-2.5
				v-17.5C341.1,414,340,412.9,338.6,412.9z"/>
		</g>
		<g>
			<path fill="#324A5E" d="M422.1,379.2H89.9c-1.9,0-3.4-1.5-3.4-3.4V114c0-1.9,1.5-3.4,3.4-3.4h332.2c1.9,0,3.4,1.5,3.4,3.4v261.7
				C425.6,377.7,424,379.2,422.1,379.2z"/>
		</g>
		<g>
			<rect x="113.7" y="137.9" fill="#FFFFFF" width="284.5" height="199.8"/>
		</g>
		<g>
			<circle fill="#E6E9EE" cx="256" cy="357.8" r="8.7"/>
		</g>
		<g>
			<g>
				<rect x="344.5" y="240.1" fill="#FF7058" width="22.9" height="72.4"/>
			</g>
			<g>
				<rect x="302.4" y="261.2" fill="#FF7058" width="22.9" height="51.3"/>
			</g>
			<g>
				<rect x="260.3" y="277.1" fill="#FF7058" width="22.9" height="35.4"/>
			</g>
			<g>
				<rect x="218.2" y="289.1" fill="#FF7058" width="22.9" height="23.4"/>
			</g>
		</g>
		<g>
			<path fill="#E6E9EE" d="M222,229.4c44.2,14.7,92.5,3.7,125.9-29.3c3.8,3.6,7.6,7.1,11.4,10.7c5.1-19,6.2-38.1,3.7-55.9
				c-13.1,11.2-27.5,17.7-41.4,20.5c3.8,3.6,7.6,7.1,11.4,10.7C309.3,218.5,267.7,237.4,222,229.4z"/>
		</g>
		<g>
			<rect x="135" y="158.3" fill="#E6E9EE" width="78.5" height="13.5"/>
		</g>
		<g>
			<rect x="135" y="186.8" fill="#E6E9EE" width="59.1" height="13.5"/>
		</g>
	</g>
</g>
</svg>
