<?xml version="1.0" encoding="utf-8"?>
<!-- Generator: Adobe Illustrator 18.0.0, SVG Export Plug-In . SVG Version: 6.00 Build 0)  -->
<!DOCTYPE svg PUBLIC "-//W3C//DTD SVG 1.1//EN" "http://www.w3.org/Graphics/SVG/1.1/DTD/svg11.dtd">
<svg version="1.1" id="Layer_1" xmlns="http://www.w3.org/2000/svg" xmlns:xlink="http://www.w3.org/1999/xlink" x="0px" y="0px"
	 viewBox="0 0 512 512" enable-background="new 0 0 512 512" xml:space="preserve">
<g>
	<circle fill="none" cx="256" cy="256" r="252.5"/>
	<g>
		<g>
			<path fill="#FFFFFF" d="M322.3,417.6v-51.1c0-6.2,5-11.2,11.2-11.2h51.1V105.5c0-6.2-5-11.2-11.2-11.2H138.6
				c-6.2,0-11.2,5-11.2,11.2l0,300.9c0,6.2,5,11.2,11.2,11.2H322.3z"/>
			<path fill="#E6E9EE" d="M322.3,417.6l62.3-62.3h-51.1c-6.2,0-11.2,5-11.2,11.2V417.6z"/>
		</g>
		<g>
			<rect x="152.8" y="273.5" fill="#E6E9EE" width="200.6" height="11.5"/>
			<rect x="152.8" y="245.1" fill="#E6E9EE" width="200.6" height="11.5"/>
			<rect x="152.8" y="216.7" fill="#E6E9EE" width="200.6" height="11.5"/>
			<rect x="227.6" y="188.3" fill="#E6E9EE" width="125.8" height="11.5"/>
			<rect x="227.6" y="159.9" fill="#E6E9EE" width="125.8" height="11.5"/>
			<rect x="227.6" y="131.6" fill="#E6E9EE" width="125.8" height="11.5"/>
			<rect x="152.8" y="301.9" fill="#E6E9EE" width="200.6" height="11.5"/>
			<rect x="152.8" y="330.2" fill="#E6E9EE" width="100.2" height="11.5"/>
		</g>
		<rect x="152.8" y="131.6" fill="#4CDBC4" width="58.7" height="68.3"/>
	</g>
</g>
</svg>
