<?xml version="1.0" encoding="utf-8"?>
<!-- Generator: Adobe Illustrator 18.0.0, SVG Export Plug-In . SVG Version: 6.00 Build 0)  -->
<!DOCTYPE svg PUBLIC "-//W3C//DTD SVG 1.1//EN" "http://www.w3.org/Graphics/SVG/1.1/DTD/svg11.dtd">
<svg version="1.1" id="Layer_1" xmlns="http://www.w3.org/2000/svg" xmlns:xlink="http://www.w3.org/1999/xlink" x="0px" y="0px"
	 viewBox="0 0 512 512" enable-background="new 0 0 512 512" xml:space="preserve">
<g>
	<circle fill="#3eaba4" cx="256" cy="256" r="252.5"/>
	<path fill="#FFFFFF" d="M91.5,179.5v192.7c0,0.9,0.7,1.6,1.6,1.6h325.7c0.9,0,1.6-0.7,1.6-1.6V179.5H91.5z"/>
	<path fill="#FF7058" d="M420.5,180.2v-32.1c0-5.5-4.4-9.9-9.9-9.9H101.5c-5.5,0-9.9,4.4-9.9,9.9v32.1H420.5z"/>
	<g>
		<circle fill="#FFFFFF" cx="398.7" cy="159.3" r="8.4"/>
		<circle fill="#FFFFFF" cx="366.7" cy="159.3" r="8.4"/>
		<circle fill="#FFFFFF" cx="334.7" cy="159.3" r="8.4"/>
	</g>
	<path fill="#324A5E" d="M349.4,318.1H162.6c-1.7,0-3.2-1.4-3.2-3.2V203.8c0-1.7,1.4-3.2,3.2-3.2h186.7c1.7,0,3.2,1.4,3.2,3.2V315
		C352.5,316.7,351.1,318.1,349.4,318.1z"/>
	<path fill="#ACB3BA" d="M230,231.6v55.6c0,3.5,3.9,5.6,6.8,3.7l43.2-27.8c2.7-1.7,2.7-5.7,0-7.4l-43.2-27.8
		C233.9,226,230,228.1,230,231.6z"/>
	<rect x="159.5" y="337.7" fill="#54C0EB" width="193" height="9.4"/>
	<circle fill="#84DBFF" cx="186.1" cy="342.4" r="12"/>
</g>
</svg>
