<?xml version="1.0" encoding="utf-8"?>
<!-- Generator: Adobe Illustrator 18.0.0, SVG Export Plug-In . SVG Version: 6.00 Build 0)  -->
<!DOCTYPE svg PUBLIC "-//W3C//DTD SVG 1.1//EN" "http://www.w3.org/Graphics/SVG/1.1/DTD/svg11.dtd">
<svg version="1.1" id="Layer_1" xmlns="http://www.w3.org/2000/svg" xmlns:xlink="http://www.w3.org/1999/xlink" x="0px" y="0px"
	 viewBox="0 0 512 512" enable-background="new 0 0 512 512" xml:space="preserve">
<g>
	<circle fill="#aaa" cx="256" cy="256" r="252"/>
	<path fill="none" d="M340.6,215l-41,41l41,41c6-12.4,9.4-26.3,9.4-41C350,241.3,346.6,227.4,340.6,215z"/>
	<path fill="none" d="M171.4,215c-6,12.4-9.4,26.3-9.4,41c0,14.7,3.4,28.6,9.4,41l41-41L171.4,215z"/>
	<path fill="none" d="M215,340.6c12.4,6,26.3,9.4,41,9.4c14.7,0,28.6-3.4,41-9.4l-41-41L215,340.6z"/>
	<path fill="none" d="M297,171.4c-12.4-6-26.3-9.4-41-9.4s-28.6,3.4-41,9.4l41,41L297,171.4z"/>
	<g>
		<path fill="#FF7058" d="M256,76c-99.4,0-180,80.6-180,180s80.6,180,180,180s180-80.6,180-180S355.4,76,256,76z M256,350
			c-51.9,0-94-42.1-94-94s42.1-94,94-94s94,42.1,94,94S307.9,350,256,350z"/>
		<path fill="#FFFFFF" d="M403.2,359.5L340.6,297c-9.2,19-24.7,34.4-43.7,43.7l62.6,62.6C376.5,391.3,391.3,376.5,403.2,359.5z"/>
		<path fill="#FFFFFF" d="M215,171.4l-62.6-62.6c-16.9,11.9-31.7,26.7-43.7,43.7l62.6,62.6C180.6,196,196,180.6,215,171.4z"/>
		<path fill="#FFFFFF" d="M340.6,215l62.6-62.6c-11.9-16.9-26.7-31.7-43.7-43.7L297,171.4C316,180.6,331.4,196,340.6,215z"/>
		<path fill="#FFFFFF" d="M171.4,297l-62.6,62.6c11.9,16.9,26.7,31.7,43.7,43.7l62.6-62.6C196,331.4,180.6,316,171.4,297z"/>
	</g>
</g>
</svg>
