<?xml version="1.0" encoding="utf-8"?>
<!-- Generator: Adobe Illustrator 18.0.0, SVG Export Plug-In . SVG Version: 6.00 Build 0)  -->
<!DOCTYPE svg PUBLIC "-//W3C//DTD SVG 1.1//EN" "http://www.w3.org/Graphics/SVG/1.1/DTD/svg11.dtd">
<svg version="1.1" id="Layer_1" xmlns="http://www.w3.org/2000/svg" xmlns:xlink="http://www.w3.org/1999/xlink" x="0px" y="0px"
	 viewBox="0 0 128 128" enable-background="new 0 0 128 128" xml:space="preserve">
<g>
	<circle fill="#02708C" cx="64" cy="64" r="63.5"/>
	<g>
		<polygon fill="#444444" points="38.7,91.6 34.2,91.6 38.1,74.7 48.6,70.3 49.8,82 42.5,85.7 		"/>
		<polygon fill="#444444" points="89.3,91.6 93.8,91.6 89.9,74.7 79.4,70.3 78.2,82 85.5,85.7 		"/>
		<path fill="#FFFFFF" d="M78.2,86.2c2.6-7.3,4.1-16.6,4.1-26.8C82.3,36,64,17,64,17S45.7,36,45.7,59.4c0,10.2,1.5,19.5,4.1,26.8
			H78.2z"/>
		<path fill="#444444" d="M76.2,35C70.9,24.1,64,17,64,17S57.1,24.1,51.8,35H76.2z"/>
		<path fill="#444444" d="M61.8,89.2c0-0.5,0-1.1,0-1.7c0-6.9-2.5-12.6-5.6-12.6c-3.1,0-5.6,5.6-5.6,12.6c0,0.6,0,1.1,0,1.7H61.8z"
			/>
		<path fill="#444444" d="M77.3,89.2c0-0.5,0-1.1,0-1.7c0-6.9-2.5-12.6-5.6-12.6c-3.1,0-5.6,5.6-5.6,12.6c0,0.6,0,1.1,0,1.7H77.3z"
			/>
		<path fill="#FF7058" d="M56.3,111c0.9-4.5,5.5-7.9,5.5-13.2s-2.5-6-5.5-6c-3.1,0-5.5,0.7-5.5,6S55.3,106.5,56.3,111z"/>
		<path fill="#FFD05B" d="M56.3,106.6c0.7-3.5,4.3-6.1,4.3-10.1c0-4.1-1.9-4.6-4.3-4.6c-2.3,0-4.3,0.5-4.3,4.6
			C52,100.5,55.5,103.1,56.3,106.6z"/>
		<path fill="#FF7058" d="M71.7,111c0.9-4.5,5.5-7.9,5.5-13.2s-2.5-6-5.5-6s-5.5,0.7-5.5,6S70.8,106.5,71.7,111z"/>
		<path fill="#FFD05B" d="M71.7,106.6c0.7-3.5,4.3-6.1,4.3-10.1c0-4.1-1.9-4.6-4.3-4.6c-2.3,0-4.3,0.5-4.3,4.6
			C67.5,100.5,71,103.1,71.7,106.6z"/>
		<circle fill="#4CDBC4" cx="64" cy="50.7" r="8.7"/>
		<path fill="#2C9984" d="M69.1,43.6c-0.7-0.5-1.4-0.9-2.2-1.2L55.8,53.6c0.3,0.8,0.7,1.5,1.2,2.2L69.1,43.6z"/>
		<path fill="#2C9984" d="M70.4,44.8L58.1,57.2c0.3,0.3,0.7,0.6,1,0.8l12.1-12.1C71,45.5,70.7,45.1,70.4,44.8z"/>
	</g>
</g>
</svg>
