<?xml version="1.0" encoding="utf-8"?>
<!-- Generator: Adobe Illustrator 18.0.0, SVG Export Plug-In . SVG Version: 6.00 Build 0)  -->
<!DOCTYPE svg PUBLIC "-//W3C//DTD SVG 1.1//EN" "http://www.w3.org/Graphics/SVG/1.1/DTD/svg11.dtd">
<svg version="1.1" id="Layer_1" xmlns="http://www.w3.org/2000/svg" xmlns:xlink="http://www.w3.org/1999/xlink" x="0px" y="0px"
	 viewBox="0 0 512 512" enable-background="new 0 0 512 512" xml:space="preserve">
<g>
	<g>
		<circle fill="none" cx="256" cy="256" r="254"/>
	</g>
	<path fill="#E6E9EE" d="M351.4,148.7H132.9c-12.2,0-22,9.9-22,22v218.5c0,12.2,9.9,22,22,22h218.5c12.2,0,22-9.9,22-22V170.7
		C373.4,158.5,363.6,148.7,351.4,148.7z"/>
	<g>
		<path fill="#84DBFF" d="M150,207l36.8-58.3h-53.8c-12.2,0-22.1,9.9-22.1,22.1v33.5v6v98l40.3,29.2l77.3-124.9L150,207z"/>
	</g>
	<g>
		<path fill="#2C9984" d="M359.6,150.3v22.8L239,380.2l-128.2-71.4v80.4c0,12.2,9.9,22.1,22.1,22.1h218.4c12.2,0,22.1-9.9,22.1-22.1
			V170.7C373.4,161.5,367.7,153.6,359.6,150.3z"/>
	</g>
	<g>
		<polygon fill="#FFFFFF" points="373.4,212.9 155.5,205.4 190.9,148.7 178.7,148.7 143.5,205 110.9,203.9 110.9,214.3 219.5,218 
			193.6,259.6 161.5,239.1 156,247.9 188.1,268.4 148.6,331.9 157.4,337.4 231.5,218.4 373.4,223.3 		"/>
	</g>
	<g>
		<path fill="#FFD05B" d="M355.3,149.1l-123,218.4L110.9,299v23.8l111.3,62.7l-14.5,25.7h23.8l8.7-15.5l27.6,15.5h42.3l-59.7-33.6
			l121.3-215.4C368.9,155.4,362.7,150.4,355.3,149.1z"/>
	</g>
	<g>
		<path fill="#FF7058" d="M295.6,64.1c-53.1,0-96.1,43-96.1,96.1c0,75.3,64,102.7,96.1,167c32.1-64.3,96.1-91.8,96.1-167
			C391.7,107.1,348.7,64.1,295.6,64.1z"/>
	</g>
	<g>
		<circle fill="#FFFFFF" cx="295.6" cy="160.2" r="41.8"/>
	</g>
</g>
</svg>
