<?xml version="1.0" encoding="utf-8"?>
<!-- Generator: Adobe Illustrator 18.0.0, SVG Export Plug-In . SVG Version: 6.00 Build 0)  -->
<!DOCTYPE svg PUBLIC "-//W3C//DTD SVG 1.1//EN" "http://www.w3.org/Graphics/SVG/1.1/DTD/svg11.dtd">
<svg version="1.1" id="Layer_1" xmlns="http://www.w3.org/2000/svg" xmlns:xlink="http://www.w3.org/1999/xlink" x="0px" y="0px"
	 viewBox="0 0 512 512" enable-background="new 0 0 512 512" xml:space="preserve">
<g>
	<circle fill="none" cx="256" cy="256" r="252.5"/>
	<g>
		<g>
			<path fill="#324A5E" d="M430.5,378.9h-349c-2.1,0-3.8-1.7-3.8-3.8V136.9c0-2.1,1.7-3.8,3.8-3.8h349c2.1,0,3.8,1.7,3.8,3.8v238.2
				C434.3,377.2,432.6,378.9,430.5,378.9z"/>
			<rect x="107.7" y="163" fill="#E6E9EE" width="296.7" height="185.9"/>
			<rect x="228.4" y="215.1" fill="#84DBFF" width="62.9" height="82.9"/>
			<rect x="226.3" y="295.9" fill="#4CDBC4" width="178" height="53"/>
			<rect x="107.7" y="163" fill="#4CDBC4" width="117.1" height="51"/>
			<line fill="none" stroke="#FFFFFF" stroke-width="5" stroke-miterlimit="10" x1="352.2" y1="163" x2="352.2" y2="348.9"/>
			<line fill="none" stroke="#FFFFFF" stroke-width="5" stroke-miterlimit="10" x1="291.3" y1="163" x2="291.3" y2="348.9"/>
			<line fill="none" stroke="#FFFFFF" stroke-width="5" stroke-miterlimit="10" x1="225.8" y1="163" x2="225.8" y2="348.9"/>
			<line fill="none" stroke="#FFFFFF" stroke-width="5" stroke-miterlimit="10" x1="157.3" y1="163" x2="157.3" y2="348.9"/>
			<line fill="none" stroke="#FFFFFF" stroke-width="5" stroke-miterlimit="10" x1="293.5" y1="216.1" x2="107.7" y2="216.1"/>
			<line fill="none" stroke="#FFFFFF" stroke-width="5" stroke-miterlimit="10" x1="404.3" y1="297.1" x2="224.1" y2="297"/>
			<g>
				<polygon fill="#FFD05B" points="366.5,163.1 274.2,280.4 107.7,273.9 107.7,253.2 264.4,259.3 340.1,163.1 				"/>
			</g>
		</g>
		<g>
			<path fill="#FF7058" d="M301.7,212.7c0,18.6-33.6,57-33.6,57s-33.6-38.4-33.6-57c0-18.6,15.1-33.6,33.6-33.6
				C286.7,179.1,301.7,194.1,301.7,212.7z"/>
			<circle fill="#FFFFFF" cx="268.1" cy="212.2" r="14.7"/>
		</g>
	</g>
</g>
</svg>
