<?xml version="1.0" encoding="utf-8"?>
<!-- Generator: Adobe Illustrator 18.0.0, SVG Export Plug-In . SVG Version: 6.00 Build 0)  -->
<!DOCTYPE svg PUBLIC "-//W3C//DTD SVG 1.1//EN" "http://www.w3.org/Graphics/SVG/1.1/DTD/svg11.dtd">
<svg version="1.1" id="Layer_1" xmlns="http://www.w3.org/2000/svg" xmlns:xlink="http://www.w3.org/1999/xlink" x="0px" y="0px"
	 viewBox="0 0 512 512" enable-background="new 0 0 512 512" xml:space="preserve">
<g>
	<circle fill="none" cx="256" cy="256" r="252.5"/>
	<circle fill="#324A5E" cx="256" cy="256" r="199.8"/>
	<circle fill="#FFFFFF" cx="256" cy="256" r="167.7"/>
	<path fill="#324A5E" d="M268.5,256.5c0,5.4-7.8,61.3-11.1,84.7c-0.2,1.7-2.7,1.7-2.9,0c-3.3-23.4-11.1-79.2-11.1-84.7
		c0-6.9,5.6-12.5,12.5-12.5C262.9,244,268.5,249.6,268.5,256.5z"/>
	<path fill="#324A5E" d="M248.7,246.8c3.5-3.5,44.4-34.4,61.6-47.4c1.2-0.9,2.8,0.6,1.9,1.9c-12.9,17.2-43.9,58.1-47.4,61.6
		c-4.4,4.4-11.7,4.4-16.1,0C244.3,258.4,244.3,251.2,248.7,246.8z"/>
	<g>
		<g>
			<rect x="249.7" y="107.2" fill="#84DBFF" width="12.5" height="29"/>
			<rect x="249.7" y="375.7" fill="#84DBFF" width="12.5" height="29"/>
		</g>
		<g>
			<rect x="375.7" y="249.7" fill="#84DBFF" width="29" height="12.5"/>
			<rect x="107.2" y="249.7" fill="#84DBFF" width="29" height="12.5"/>
		</g>
	</g>
	<g>
		<g>
			<g>
				<rect x="185.4" y="125.2" transform="matrix(0.866 -0.5 0.5 0.866 -44.5599 113.1523)" fill="#84DBFF" width="7" height="29"/>
				<rect x="319.6" y="357.7" transform="matrix(0.866 -0.5 0.5 0.866 -142.8428 211.4337)" fill="#84DBFF" width="7" height="29"/>
			</g>
		</g>
		<g>
			<g>
				<rect x="136.2" y="174.3" transform="matrix(0.5 -0.866 0.866 0.5 -93.702 215.4464)" fill="#84DBFF" width="7" height="29"/>
				<rect x="368.8" y="308.6" transform="matrix(0.5 -0.866 0.866 0.5 -93.7003 483.9675)" fill="#84DBFF" width="7" height="29"/>
			</g>
		</g>
		<g>
			<g>
				
					<rect x="136.2" y="308.6" transform="matrix(-0.5 -0.866 0.866 -0.5 -70.2495 605.6996)" fill="#84DBFF" width="7" height="29"/>
				
					<rect x="368.8" y="174.3" transform="matrix(-0.5 -0.866 0.866 -0.5 394.8359 605.7022)" fill="#84DBFF" width="7" height="29"/>
			</g>
		</g>
		<g>
			<g>
				
					<rect x="185.4" y="357.7" transform="matrix(-0.866 -0.5 0.5 -0.866 166.3065 789.1035)" fill="#84DBFF" width="7" height="29"/>
				
					<rect x="319.6" y="125.2" transform="matrix(-0.866 -0.5 0.5 -0.866 533.1076 422.2977)" fill="#84DBFF" width="7" height="29"/>
			</g>
		</g>
	</g>
	<path fill="#F1543F" d="M258.1,253.5l-78-41.7c-1.7-0.9-3.8-0.3-4.7,1.4c-0.9,1.7-0.3,3.8,1.4,4.7l78,41.7c0.5,0.3,1.1,0.4,1.6,0.4
		c1.2,0,2.4-0.7,3-1.8C260.4,256.4,259.8,254.4,258.1,253.5z"/>
	<circle fill="#FFD05B" cx="256" cy="256" r="23.7"/>
</g>
</svg>
