<?xml version="1.0" encoding="utf-8"?>
<!-- Generator: Adobe Illustrator 18.0.0, SVG Export Plug-In . SVG Version: 6.00 Build 0)  -->
<!DOCTYPE svg PUBLIC "-//W3C//DTD SVG 1.1//EN" "http://www.w3.org/Graphics/SVG/1.1/DTD/svg11.dtd">
<svg version="1.1" id="Layer_1" xmlns="http://www.w3.org/2000/svg" xmlns:xlink="http://www.w3.org/1999/xlink" x="0px" y="0px"
	 viewBox="0 0 128 128" enable-background="new 0 0 128 128" xml:space="preserve">
<g>
	<circle fill="#3eaba4" cx="64" cy="64" r="63.5"/>
	<g>
		<path fill="#E6E9EE" d="M95.6,29.3H26.2c-1.1,0-2.1,0.9-2.1,2.1v54.3c0,1.1,0.9,2.1,2.1,2.1h69.4c1.1,0,2.1-0.9,2.1-2.1V31.4
			C97.7,30.2,96.8,29.3,95.6,29.3z"/>
		<rect x="29.5" y="34.6" fill="#54C0EB" width="62.9" height="41.5"/>
		<rect x="51.1" y="87.7" fill="#CED5E0" width="19.6" height="8.3"/>
		<rect x="41.9" y="96.1" fill="#E6E9EE" width="38" height="6.8"/>
		<circle fill="#324A5E" cx="60.9" cy="81.9" r="2.4"/>
		<g>
			<polygon fill="#F1543F" points="59.9,67.1 59,65.4 59.9,63.7 61.9,63.7 62.9,65.4 61.9,67.1 			"/>
			<path fill="#FFFFFF" d="M67.5,51.8c-0.1,0-0.1,0-0.2,0c0,0,0,0,0,0c0-3.4-2.8-6.2-6.2-6.2c0,0,0,0,0,0c0,0,0,0,0,0c0,0,0,0,0,0
				c-3.4,0-6.2,2.8-6.2,6.2c0,0,0,0,0,0c-0.1,0-0.1,0-0.2,0c-0.5,0-0.9,1-0.8,2.3c0.1,1.2,0.6,2.2,1.1,2.1c0,0,0.1,0,0.1,0
				c0.8,3.7,3.7,6.4,6,6.4c2,0,5.1-2.7,5.9-6.4c0,0,0.1,0,0.1,0c0.5,0,1-0.9,1.1-2.1C68.4,52.9,68,51.9,67.5,51.8z"/>
			<polygon fill="#FF7058" points="63,73.9 58.8,73.9 59.9,67.1 61.9,67.1 			"/>
			<path fill="#324A5E" d="M60.9,73.8c0,0-5-10.1-5.6-9.8c-4.6,2.1-7.9,6.7-8.1,12.1h27.3c-0.1-5.4-3.4-10-8.1-12.1
				C65.9,63.7,60.9,73.8,60.9,73.8z"/>
			<polygon fill="#FFFFFF" points="61.1,48.8 61.1,48.8 61.1,48.8 			"/>
			<path fill="#324A5E" d="M67,53c0-0.4,0.1-0.8,0.3-1.2c0-3.4-2.8-6.1-6.2-6.1c0,0,0,0,0,0c0,0,0,0,0,0c0,0,0,0,0,0
				c-3.4,0-6.2,2.8-6.2,6.2c0.1,0.4,0.2,0.7,0.2,1.1c0,0,0,0.6,0,0.6c0,0.2-0.1,0.4,0,0.6c0,0.2,0.1,0.4,0.3,0.5
				c0.2,0.1,0.4-0.1,0.6-0.3c0.1-0.2,0.2-0.4,0.2-0.6c0-0.1,0-0.6,0-0.6c0.2-1.1,0.7-2.2,1.5-3c0,0,0,0,0,0c0.3-0.3,0.7-0.2,0.9,0.1
				c0.4,0.7,1.4,1.3,2.5,1.3c1.4,0,2.6-0.8,2.7-1.9c0.3,0.2,0.5,0.4,0.7,0.6c0.8,0.8,1.3,1.9,1.5,3.1c0,0,0,0.5,0,0.5
				c0,0.2,0.1,0.4,0.2,0.6c0.1,0.2,0.4,0.3,0.6,0.3c0.2-0.1,0.3-0.3,0.3-0.5c0-0.2,0-0.4,0-0.6C67,53.5,67,53,67,53z"/>
		</g>
		<path fill="#FFFFFF" d="M103.9,36.8H75.5c-1.1,0-2,0.9-2,2v18.7c0,1.1,0.9,2,2,2h2.2l-0.6,6.5l8.4-6.5h18.3c1.1,0,2-0.9,2-2V38.7
			C105.9,37.7,105,36.8,103.9,36.8z"/>
		<g>
			<rect x="78.1" y="41.8" fill="#324A5E" width="23.2" height="1.9"/>
			<rect x="78.1" y="47.1" fill="#324A5E" width="23.2" height="1.9"/>
			<rect x="78.1" y="52.5" fill="#324A5E" width="11" height="1.9"/>
		</g>
	</g>
</g>
</svg>
